mtllib blocked.mtl
# vertices
v -64 -16 -64
v -64 -16 144
v -64 16 144
v -64 16 -64
v 64 16 144
v 64 -16 144
v 64 -16 -64
v 64 16 -64
v -16 16 -0
v -16 16 64
v -16 32 64
v -16 32 -0
v 0 32 64
v 0 16 64
v 0 16 -0
v 0 32 -0
v -64 16 -0
v -64 16 64
v -64 80 64
v -64 80 -0
v -16 80 64
v -16 16 64
v -16 16 -0
v -16 80 -0
v -64 16 96
v -64 16 112
v -64 48 112
v -64 48 96
v 64 48 112
v 64 16 112
v 64 16 96
v 64 48 96

# texture coordinates
vt 64 -16
vt -144 -16
vt -144 16
vt 64 16
vt -64 16
vt -64 -16
vt 64 -144
vt -64 -144
vt -64 64
vt 64 64
vt 0 16
vt -64 32
vt 0 32
vt -16 32
vt -16 16
vt 0 -64
vt -16 -64
vt -16 -0
vt 0 -0
vt 0 0.5833333
vt -64 0.5833333
vt -64 1.4166666
vt 0 1.4166666
vt -16 16.666666
vt -64 16.666666
vt -64 3.3333333
vt -16 3.3333333
vt -16 -53.333332
vt -64 -53.333332
vt -64 -0
vt -96 8
vt -112 8
vt -112 24
vt -96 24
vt 64 24
vt -64 24
vt -64 8
vt 64 8
vt 64 -112
vt -64 -112
vt -64 -96
vt 64 -96

# normals
vn -1 0 0
vn 0 0 1
vn 0 -1 -0
vn -0 1 -0
vn 0 -0 -1
vn 1 0 0

o entity0_brush0
usemtl __TB_empty
f  1/1/1  2/2/1  3/3/1  4/4/1
usemtl __TB_empty
f  5/4/2  3/5/2  2/6/2  6/1/2
usemtl __TB_empty
f  6/7/3  2/8/3  1/9/3  7/10/3
usemtl __TB_empty
f  8/10/4  4/9/4  3/8/4  5/7/4
usemtl __TB_empty
f  7/1/5  1/6/5  4/5/5  8/4/5
usemtl __TB_empty
f  8/4/6  5/3/6  6/2/6  7/1/6

o entity0_brush1
usemtl __TB_empty
f  9/11/1  10/5/1  11/12/1  12/13/1
usemtl __TB_empty
f  13/13/2  11/14/2  10/15/2  14/11/2
usemtl __TB_empty
f  14/16/3  10/17/3  9/18/3  15/19/3
usemtl __TB_empty
f  16/19/4  12/18/4  11/17/4  13/16/4
usemtl __TB_empty
f  15/11/5  9/15/5  12/14/5  16/13/5
usemtl __TB_empty
f  16/13/6  13/12/6  14/5/6  15/11/6

o entity0_brush2
usemtl __TB_empty
f  17/20/1  18/21/1  19/22/1  20/23/1
usemtl __TB_empty
f  21/24/2  19/25/2  18/26/2  22/27/2
usemtl __TB_empty
f  22/28/3  18/29/3  17/30/3  23/18/3
usemtl __TB_empty
f  24/18/4  20/30/4  19/29/4  21/28/4
usemtl __TB_empty
f  23/27/5  17/26/5  20/25/5  24/24/5
usemtl __TB_empty
f  24/23/6  21/22/6  22/21/6  23/20/6

o entity0_brush3
usemtl __TB_empty
f  25/31/1  26/32/1  27/33/1  28/34/1
usemtl __TB_empty
f  29/35/2  27/36/2  26/37/2  30/38/2
usemtl __TB_empty
f  30/39/3  26/40/3  25/41/3  31/42/3
usemtl __TB_empty
f  32/42/4  28/41/4  27/40/4  29/39/4
usemtl __TB_empty
f  31/38/5  25/37/5  28/36/5  32/35/5
usemtl __TB_empty
f  32/34/6  29/33/6  30/32/6  31/31/6

